<svg width="72" height="72" viewBox="0 0 72 72" fill="none" xmlns="http://www.w3.org/2000/svg">
<path d="M47.3067 40.4347C54.8613 41.8267 60 44.5707 60 47.7307C60 52.2987 49.2533 56 36 56C22.7467 56 12 52.2987 12 47.7307C12 44.5707 17.1413 41.8267 24.6933 40.4347C27.9733 41.288 31.8507 41.776 36 41.776C40.1493 41.776 44.0267 41.2827 47.3067 40.4347ZM44.4187 27.04C50.8347 28.1067 55.2533 30.3547 55.2533 32.9547C55.2533 36.5867 46.6347 39.5307 36.0027 39.5307C25.3707 39.5307 16.7493 36.5867 16.7493 32.9547C16.7493 30.3547 21.1707 28.1067 27.5867 27.04C30.3412 27.7109 33.1677 28.0414 36.0027 28.024C38.8377 28.0414 41.6641 27.7109 44.4187 27.04ZM36.088 16C44.0507 16 50.5067 18.2267 50.5067 20.9787C50.5067 23.7253 44.0507 25.9547 36.088 25.9547C28.1253 25.9547 21.6693 23.7253 21.6693 20.9787C21.6693 18.2267 28.1253 16 36.088 16Z" fill="black"/>
</svg>
