<svg width="72" height="72" viewBox="0 0 72 72" fill="none" xmlns="http://www.w3.org/2000/svg">
<path d="M46.2109 40.336V28H48.6909V40.336H46.2109Z" fill="#F6A500"/>
<path d="M17.3147 44.0001H12V31.6641H17.1013C19.5813 31.6641 21.024 33.0161 21.024 35.1307C21.024 36.4987 20.096 37.3841 19.456 37.6774C20.2213 38.0241 21.2027 38.8054 21.2027 40.4507C21.2027 42.7521 19.5787 43.9974 17.3147 43.9974M16.904 33.8107H14.4773V36.6507H16.904C17.9573 36.6507 18.544 36.0801 18.544 35.2294C18.544 34.3841 17.9573 33.8107 16.904 33.8107ZM17.064 38.8161H14.4773V41.8481H17.064C18.184 41.8481 18.7227 41.1574 18.7227 40.3254C18.7227 39.4934 18.1867 38.8187 17.064 38.8187V38.8161ZM28.7653 38.9387V44.0001H26.304V38.9387L22.488 31.6641H25.1813L27.552 36.6347L29.8907 31.6641H32.584L28.7653 38.9387ZM39.6133 44.0001H34.2987V31.6641H39.4C41.88 31.6641 43.32 33.0161 43.32 35.1307C43.32 36.4987 42.3947 37.3841 41.752 37.6774C42.5173 38.0241 43.4987 38.8054 43.4987 40.4507C43.4987 42.7521 41.8773 43.9974 39.6133 43.9974M39.2 33.8107H36.7733V36.6507H39.2C40.2533 36.6507 40.8427 36.0801 40.8427 35.2294C40.8427 34.3841 40.256 33.8107 39.2 33.8107ZM39.36 38.8161H36.7733V41.8481H39.36C40.4853 41.8481 41.0187 41.1574 41.0187 40.3254C41.0187 39.4934 40.4853 38.8187 39.36 38.8187V38.8161ZM56.68 33.8134V44.0001H54.2027V33.8134H50.8827V31.6641H60V33.8134H56.68Z" fill="#1A1A1A"/>
</svg>
