<svg width="64" height="64" viewBox="0 0 64 64" fill="none" xmlns="http://www.w3.org/2000/svg">
<path d="M32 8C38.3652 8 44.4697 10.5286 48.9706 15.0294C53.4714 19.5303 56 25.6348 56 32C56 38.3652 53.4714 44.4697 48.9706 48.9706C44.4697 53.4714 38.3652 56 32 56C25.6348 56 19.5303 53.4714 15.0294 48.9706C10.5286 44.4697 8 38.3652 8 32C8 25.6348 10.5286 19.5303 15.0294 15.0294C19.5303 10.5286 25.6348 8 32 8Z" fill="#0052FF"/>
<path d="M32.0058 40.437C30.3974 40.4383 28.8223 39.9798 27.4659 39.1155C26.1096 38.2512 25.0286 37.0171 24.3505 35.5587C23.6724 34.1003 23.4254 32.4785 23.6385 30.8844C23.8517 29.2902 24.5162 27.7903 25.5537 26.5613C26.5912 25.3324 27.9584 24.4257 29.4942 23.9481C31.03 23.4705 32.6703 23.442 34.2218 23.8659C35.7732 24.2898 37.1712 25.1484 38.2508 26.3405C39.3304 27.5327 40.0466 29.0086 40.3151 30.5943H48.8138C48.4512 26.2558 46.4258 22.2253 43.1609 19.3451C39.896 16.465 35.6443 14.9582 31.2944 15.1397C26.9445 15.3211 22.8331 17.1768 19.8194 20.3188C16.8057 23.4608 15.123 27.646 15.123 31.9997C15.123 36.3534 16.8057 40.5386 19.8194 43.6806C22.8331 46.8226 26.9445 48.6782 31.2944 48.8597C35.6443 49.0411 39.896 47.5343 43.1609 44.6542C46.4258 41.7741 48.4512 37.7436 48.8138 33.405H40.3124C39.9827 35.37 38.9673 37.1545 37.4466 38.4419C35.9259 39.7292 33.9982 40.4361 32.0058 40.437Z" fill="white"/>
</svg>
