<svg width="72" height="72" viewBox="0 0 72 72" fill="none" xmlns="http://www.w3.org/2000/svg">
<path d="M35.9973 17.1406C22.744 17.1406 12 27.89 12 41.1486V51.4366C12.0426 52.3178 12.4226 53.1489 13.0613 53.7575C13.7 54.3661 14.5484 54.7056 15.4307 54.7056C16.3129 54.7056 17.1613 54.3661 17.8 53.7575C18.4387 53.1489 18.8188 52.3178 18.8613 51.4366V41.1486C18.8613 40.2398 19.2224 39.3682 19.865 38.7256C20.5076 38.083 21.3792 37.722 22.288 37.722C23.1968 37.722 24.0684 38.083 24.711 38.7256C25.3536 39.3682 25.7147 40.2398 25.7147 41.1486V51.4366C25.7147 52.3458 26.0758 53.2177 26.7187 53.8606C27.3616 54.5035 28.2335 54.8646 29.1427 54.8646C30.0518 54.8646 30.9238 54.5035 31.5666 53.8606C32.2095 53.2177 32.5707 52.3458 32.5707 51.4366V41.1486C32.5579 40.6901 32.6372 40.2336 32.8038 39.8062C32.9705 39.3788 33.2211 38.9891 33.541 38.6602C33.8608 38.3314 34.2433 38.0699 34.6659 37.8914C35.0885 37.7129 35.5426 37.621 36.0013 37.621C36.4601 37.621 36.9142 37.7129 37.3368 37.8914C37.7594 38.0699 38.1419 38.3314 38.4617 38.6602C38.7815 38.9891 39.0322 39.3788 39.1989 39.8062C39.3655 40.2336 39.4448 40.6901 39.432 41.1486V51.4366C39.432 52.3451 39.7929 53.2163 40.4353 53.8587C41.0776 54.5011 41.9489 54.862 42.8573 54.862C43.7658 54.862 44.637 54.5011 45.2794 53.8587C45.9218 53.2163 46.2827 52.3451 46.2827 51.4366V41.1486C46.2827 40.2388 46.6441 39.3662 47.2875 38.7228C47.9309 38.0794 48.8035 37.718 49.7133 37.718C50.6232 37.718 51.4958 38.0794 52.1392 38.7228C52.7826 39.3662 53.144 40.2388 53.144 41.1486V51.4366C53.144 52.3458 53.5052 53.2177 54.148 53.8606C54.7909 54.5035 55.6628 54.8646 56.572 54.8646C57.4812 54.8646 58.3531 54.5035 58.996 53.8606C59.6388 53.2177 60 52.3458 60 51.4366V41.1486C60.0011 37.996 59.381 34.8741 58.1752 31.9611C56.9693 29.0482 55.2014 26.4014 52.9725 24.1719C50.7435 21.9425 48.097 20.174 45.1844 18.9675C42.2718 17.7611 39.15 17.1403 35.9973 17.1406Z" fill="#5741D9"/>
</svg>
