<svg width="44" height="48" viewBox="0 0 44 48" fill="none" xmlns="http://www.w3.org/2000/svg">
<path fill-rule="evenodd" clip-rule="evenodd" d="M13.856 24.0088L28.072 38.2275L37.0453 29.2541C37.8171 28.5525 38.8293 28.1749 39.8721 28.1997C40.9148 28.2245 41.908 28.6498 42.6455 29.3873C43.383 30.1248 43.8083 31.118 43.8331 32.1607C43.8579 33.2035 43.4803 34.2157 42.7787 34.9875L30.9387 46.8301C30.174 47.5822 29.1445 48.0037 28.072 48.0037C26.9995 48.0037 25.9699 47.5822 25.2053 46.8301L8.12 29.7421V39.8995C8.12 40.9762 7.69225 42.0089 6.93085 42.7703C6.16946 43.5317 5.13678 43.9595 4.06 43.9595C2.98322 43.9595 1.95054 43.5317 1.18915 42.7703C0.427749 42.0089 2.26914e-08 40.9762 0 39.8995V8.10479C2.26914e-08 7.02801 0.427749 5.99534 1.18915 5.23394C1.95054 4.47254 2.98322 4.04479 4.06 4.04479C5.13678 4.04479 6.16946 4.47254 6.93085 5.23394C7.69225 5.99534 8.12 7.02801 8.12 8.10479V18.2648L25.2027 1.17679C25.9663 0.422793 26.9962 0 28.0693 0C29.1425 0 30.1724 0.422793 30.936 1.17679L42.7867 13.0195C43.4883 13.7912 43.8659 14.8035 43.8411 15.8462C43.8163 16.8889 43.391 17.8821 42.6535 18.6196C41.916 19.3571 40.9228 19.7824 39.8801 19.8072C38.8373 19.832 37.8251 19.4544 37.0533 18.7528L28.08 9.77946L13.856 24.0088ZM28.08 19.9448C27.546 19.9444 27.0171 20.0493 26.5236 20.2533C26.03 20.4574 25.5815 20.7566 25.2036 21.134C24.8258 21.5114 24.5259 21.9595 24.3212 22.4527C24.1166 22.946 24.011 23.4748 24.0107 24.0088C24.0103 24.5428 24.1152 25.0717 24.3192 25.5652C24.5233 26.0588 24.8225 26.5073 25.1999 26.8851C25.5773 27.263 26.0254 27.5629 26.5186 27.7675C27.0119 27.9722 27.5406 28.0778 28.0747 28.0781C29.1532 28.0788 30.1879 27.6511 30.951 26.8889C31.7142 26.1268 32.1433 25.0927 32.144 24.0141C32.1447 22.9356 31.7169 21.9009 30.9548 21.1378C30.1926 20.3746 29.1586 19.9455 28.08 19.9448Z" fill="#23AF91"/>
</svg>
