<svg width="48" height="15" viewBox="0 0 48 15" fill="none" xmlns="http://www.w3.org/2000/svg">
<path d="M14.08 0H0.32C0.277977 0 0.236366 0.00827661 0.197542 0.0243581C0.158717 0.0404396 0.123441 0.0640098 0.0937258 0.0937246C0.0640111 0.123439 0.0404403 0.158716 0.0243587 0.19754C0.00827724 0.236364 0 0.277977 0 0.32V14.08C0 14.1649 0.0337142 14.2463 0.0937258 14.3063C0.153737 14.3663 0.23513 14.4 0.32 14.4H14.08C14.1649 14.4 14.2463 14.3663 14.3063 14.3063C14.3663 14.2463 14.4 14.1649 14.4 14.08V0.32C14.4 0.23513 14.3663 0.153736 14.3063 0.0937246C14.2463 0.0337129 14.1649 0 14.08 0ZM9.6 9.28C9.6 9.36487 9.56629 9.44626 9.50627 9.50627C9.44626 9.56629 9.36487 9.6 9.28 9.6H5.12C5.03513 9.6 4.95374 9.56629 4.89373 9.50627C4.83371 9.44626 4.8 9.36487 4.8 9.28V5.12C4.8 5.03513 4.83371 4.95374 4.89373 4.89372C4.95374 4.83371 5.03513 4.8 5.12 4.8H9.28C9.36487 4.8 9.44626 4.83371 9.50627 4.89372C9.56629 4.95374 9.6 5.03513 9.6 5.12V9.28ZM42.8827 4.8H38.7227C38.6378 4.8 38.5564 4.83371 38.4964 4.89372C38.4364 4.95374 38.4027 5.03513 38.4027 5.12V9.28C38.4027 9.456 38.5467 9.6 38.7227 9.6H42.8827C42.9675 9.6 43.0489 9.56629 43.1089 9.50627C43.169 9.44626 43.2027 9.36487 43.2027 9.28V5.12C43.2027 5.03513 43.169 4.95374 43.1089 4.89372C43.0489 4.83371 42.9675 4.8 42.8827 4.8ZM38.08 0H33.92C33.8351 0 33.7537 0.0337129 33.6937 0.0937246C33.6337 0.153736 33.6 0.23513 33.6 0.32V4.48C33.6 4.656 33.744 4.8 33.92 4.8H38.08C38.1649 4.8 38.2463 4.76628 38.3063 4.70627C38.3663 4.64626 38.4 4.56487 38.4 4.48V0.32C38.4 0.23513 38.3663 0.153736 38.3063 0.0937246C38.2463 0.0337129 38.1649 0 38.08 0ZM47.68 0H43.52C43.4351 0 43.3537 0.0337129 43.2937 0.0937246C43.2337 0.153736 43.2 0.23513 43.2 0.32V4.48C43.2 4.656 43.344 4.8 43.52 4.8H47.68C47.7649 4.8 47.8463 4.76628 47.9063 4.70627C47.9663 4.64626 48 4.56487 48 4.48V0.32C48 0.23513 47.9663 0.153736 47.9063 0.0937246C47.8463 0.0337129 47.7649 0 47.68 0ZM38.08 9.6H33.92C33.8351 9.6 33.7537 9.63371 33.6937 9.69372C33.6337 9.75374 33.6 9.83513 33.6 9.92V14.08C33.6 14.256 33.744 14.4 33.92 14.4H38.08C38.1649 14.4 38.2463 14.3663 38.3063 14.3063C38.3663 14.2463 38.4 14.1649 38.4 14.08V9.92C38.4 9.83513 38.3663 9.75374 38.3063 9.69372C38.2463 9.63371 38.1649 9.6 38.08 9.6ZM47.68 9.6H43.52C43.4351 9.6 43.3537 9.63371 43.2937 9.69372C43.2337 9.75374 43.2 9.83513 43.2 9.92V14.08C43.2 14.256 43.344 14.4 43.52 14.4H47.68C47.7649 14.4 47.8463 14.3663 47.9063 14.3063C47.9663 14.2463 48 14.1649 48 14.08V9.92C48 9.83513 47.9663 9.75374 47.9063 9.69372C47.8463 9.63371 47.7649 9.6 47.68 9.6ZM30.8773 0H26.7173C26.6325 0 26.5511 0.0337129 26.4911 0.0937246C26.431 0.153736 26.3973 0.23513 26.3973 0.32V4.48C26.3973 4.656 26.5413 4.8 26.7173 4.8H30.8773C30.9622 4.8 31.0436 4.76628 31.1036 4.70627C31.1636 4.64626 31.1973 4.56487 31.1973 4.48V0.32C31.1973 0.23513 31.1636 0.153736 31.1036 0.0937246C31.0436 0.0337129 30.9622 0 30.8773 0ZM30.8773 9.6H26.7173C26.6325 9.6 26.5511 9.63371 26.4911 9.69372C26.431 9.75374 26.3973 9.83513 26.3973 9.92V14.08C26.3973 14.256 26.5413 14.4 26.7173 14.4H30.8773C30.9622 14.4 31.0436 14.3663 31.1036 14.3063C31.1636 14.2463 31.1973 14.1649 31.1973 14.08V9.92C31.1973 9.83513 31.1636 9.75374 31.1036 9.69372C31.0436 9.63371 30.9622 9.6 30.8773 9.6ZM26.3973 5.11733C26.3973 5.03246 26.3636 4.95107 26.3036 4.89106C26.2436 4.83105 26.1622 4.79733 26.0773 4.79733H21.5973V0.32C21.5973 0.23513 21.5636 0.153736 21.5036 0.0937246C21.4436 0.0337129 21.3622 0 21.2773 0H17.1173C17.0325 0 16.9511 0.0337129 16.8911 0.0937246C16.831 0.153736 16.7973 0.23513 16.7973 0.32V14.072C16.7973 14.1569 16.831 14.2383 16.8911 14.2983C16.9511 14.3583 17.0325 14.392 17.1173 14.392H21.2773C21.3622 14.392 21.4436 14.3583 21.5036 14.2983C21.5636 14.2383 21.5973 14.1569 21.5973 14.072V9.59733H26.0773C26.1622 9.59733 26.2436 9.56362 26.3036 9.50361C26.3636 9.44359 26.3973 9.3622 26.3973 9.27733V5.11733Z" fill="black"/>
</svg>
