<svg width="64" height="64" viewBox="0 0 64 64" fill="none" xmlns="http://www.w3.org/2000/svg">
<path fill-rule="evenodd" clip-rule="evenodd" d="M31.981 56.0003C24.853 55.995 19.1144 54.3016 15.101 51.2616C11.0424 48.1843 8.8877 43.8163 8.8877 38.875C8.8877 34.1123 11.037 30.6803 13.469 28.3603C15.0819 26.8526 16.9302 25.6186 18.941 24.707C18.6104 23.699 18.1944 22.3843 17.8264 21.0216C17.333 19.203 16.8477 17.067 16.8477 15.5016C16.8477 13.651 17.2557 11.7896 18.3544 10.3443C19.5197 8.81896 21.2664 8.0003 23.3704 8.0003C24.9107 7.98482 26.3954 8.5758 27.5037 9.64563C28.5517 10.643 29.2477 11.9656 29.7277 13.3443C30.5704 15.7656 30.901 18.811 30.9917 21.8483H33.0077C33.0984 18.8083 33.429 15.7683 34.2717 13.3416C34.7517 11.9656 35.4477 10.643 36.493 9.64563C37.5864 8.60563 38.9837 8.0003 40.6264 8.0003C42.733 8.0003 44.4824 8.81896 45.6424 10.347C46.7437 11.7896 47.1517 13.651 47.1517 15.5016C47.1517 17.067 46.6664 19.203 46.173 21.0216C45.7997 22.3816 45.389 23.699 45.0584 24.707C47.0692 25.6186 48.9175 26.8526 50.5304 28.3603C52.9624 30.6803 55.1117 34.1123 55.1117 38.875C55.1117 43.8163 52.957 48.1816 48.8984 51.2616C44.885 54.3016 39.1437 55.995 32.0184 56.0003H31.981Z" fill="#633001"/>
<path d="M23.3708 9.75781C20.2881 9.75781 18.8694 12.0591 18.8694 15.2405C18.8694 17.7685 20.5201 22.8298 21.1948 24.8005C21.2667 25.016 21.2525 25.251 21.155 25.4563C21.0576 25.6616 20.8846 25.8212 20.6721 25.9018C18.2028 26.8751 10.9121 30.4431 10.9121 38.6111C10.9121 47.2165 18.3201 53.7045 31.9841 53.7151H32.0161C45.6801 53.7045 53.0881 47.2165 53.0881 38.6111C53.0881 30.4431 45.7974 26.8778 43.3281 25.9018C43.1152 25.8217 42.9415 25.6623 42.8436 25.457C42.7456 25.2516 42.731 25.0164 42.8028 24.8005C43.4801 22.8298 45.1308 17.7685 45.1308 15.2405C45.1308 12.0591 43.7094 9.76048 40.6268 9.76048C36.1894 9.76048 35.0854 16.0458 35.0054 22.7898C35.0027 23.0058 34.9154 23.2122 34.7624 23.3647C34.6094 23.5172 34.4028 23.6037 34.1868 23.6058H29.8134C29.5974 23.6037 29.3908 23.5172 29.2378 23.3647C29.0848 23.2122 28.9976 23.0058 28.9948 22.7898C28.9148 16.0431 27.8081 9.75781 23.3708 9.75781Z" fill="#D1884F"/>
<path d="M32.0161 50.9635C21.9761 50.9635 10.9281 45.5901 10.9121 38.6328V38.6648C10.9121 47.2781 18.3334 53.7688 32.0161 53.7688C45.6988 53.7688 53.1201 47.2781 53.1201 38.6675V38.6328C53.1041 45.5901 42.0534 50.9635 32.0161 50.9635Z" fill="#FEDC90"/>
<path d="M26.4378 36.4952C26.4378 38.8419 25.3285 40.0685 23.9578 40.0685C22.5898 40.0685 21.4805 38.8419 21.4805 36.4952C21.4805 34.1485 22.5898 32.9219 23.9605 32.9219C25.3285 32.9219 26.4405 34.1485 26.4405 36.4952M42.5525 36.4952C42.5525 38.8419 41.4431 40.0685 40.0725 40.0685C38.7045 40.0685 37.5925 38.8419 37.5925 36.4952C37.5925 34.1485 38.7045 32.9219 40.0725 32.9219C41.4405 32.9219 42.5525 34.1485 42.5525 36.4952Z" fill="#633001"/>
</svg>
