<svg width="72" height="72" viewBox="0 0 72 72" fill="none" xmlns="http://www.w3.org/2000/svg">
<path fill-rule="evenodd" clip-rule="evenodd" d="M58.9996 42.5359L49.637 55.5439C48.2716 57.4372 45.6129 58.2746 42.2263 58.0052C37.5223 57.5972 31.2716 55.1146 25.2929 50.8479C23.347 49.4712 21.5064 47.9514 19.7863 46.3012C16.6183 43.2452 14.2929 40.0666 13.0449 37.2292C11.6823 34.1146 11.6369 31.3599 12.9996 29.4639L22.3863 16.4559C23.749 14.5626 26.3863 13.7252 29.7943 13.9946C34.501 14.3786 40.7276 16.8852 46.7276 21.1306C52.7036 25.3972 57.0903 30.4799 58.9543 34.7706C59.1143 35.1386 59.2565 35.5012 59.381 35.8586C60.309 38.5252 60.2023 40.8639 58.9996 42.5359Z" fill="url(#paint0_linear_19017_943)"/>
<path fill-rule="evenodd" clip-rule="evenodd" d="M57.5016 35.4018C55.7043 31.3138 51.5016 26.5031 45.7736 22.4418C40.0669 18.3751 34.1363 15.9618 29.6589 15.5991C26.9309 15.3724 24.7736 15.8684 23.6829 17.3831L23.6376 17.4711C22.6136 18.9858 22.8403 21.1298 23.9096 23.5698C25.7043 27.6764 29.9096 32.4871 35.6163 36.5511C41.3176 40.6178 47.2509 43.0311 51.7283 43.3938C54.4083 43.5964 56.5229 43.1244 57.6376 41.7004L57.7043 41.5884C58.7976 40.0951 58.5683 37.8844 57.5016 35.4018ZM49.1149 35.4924C48.6136 36.1911 47.5923 36.3938 46.3416 36.2818C44.0909 36.1004 41.1363 34.8818 38.2723 32.8498C35.4083 30.8178 33.2963 28.4231 32.4083 26.3698C31.9096 25.2178 31.7736 24.2018 32.2749 23.5004C32.7736 22.8018 33.7949 22.5964 35.0669 22.6871C37.2963 22.8924 40.2723 24.0871 43.1149 26.1218C45.9789 28.1538 48.0909 30.5698 48.9763 32.6231C49.5016 33.7751 49.6376 34.7911 49.1149 35.4924Z" fill="white"/>
<defs>
<linearGradient id="paint0_linear_19017_943" x1="28.2956" y1="13.4132" x2="43.5276" y2="58.6506" gradientUnits="userSpaceOnUse">
<stop stop-color="#27B0E6"/>
<stop offset="0.044" stop-color="#49A1DB"/>
<stop offset="0.118" stop-color="#7D8ACA"/>
<stop offset="0.216" stop-color="#A279BD"/>
<stop offset="0.296" stop-color="#BA6FB6"/>
<stop offset="0.375" stop-color="#C26BB3"/>
<stop offset="0.468" stop-color="#D563AD"/>
<stop offset="0.58" stop-color="#E65BA7"/>
<stop offset="0.709" stop-color="#F156A3"/>
<stop offset="0.823" stop-color="#F853A1"/>
<stop offset="1" stop-color="#FA52A0"/>
</linearGradient>
</defs>
</svg>
