<svg width="64" height="64" viewBox="0 0 64 64" fill="none" xmlns="http://www.w3.org/2000/svg">
<path d="M45.8822 15.2513C45.9462 14.118 46.1009 13.3713 46.4102 12.686C46.5329 12.4166 46.6502 12.1953 46.6662 12.1953C46.6486 12.3477 46.609 12.4968 46.5489 12.638C46.3222 13.302 46.2849 14.2113 46.4422 15.2646C46.6369 16.6033 46.7489 16.798 48.1702 18.2433C48.8369 18.9233 49.6102 19.7766 49.8929 20.1446L50.4022 20.8113L49.8929 20.3366C49.2689 19.75 47.8316 18.614 47.5142 18.4513C47.3009 18.342 47.2689 18.3446 47.1382 18.4726C47.0182 18.5926 46.9916 18.774 46.9756 19.6246C46.9489 20.9526 46.7676 21.806 46.3302 22.6593C46.0902 23.118 46.0529 23.022 46.2689 22.4993C46.4289 22.1126 46.4449 21.9393 46.4449 20.6566C46.4422 18.0726 46.1329 17.4513 44.3302 16.39C43.787 16.0731 43.228 15.7838 42.6556 15.5233C42.3736 15.4105 42.1 15.2777 41.8369 15.126C41.8902 15.0753 43.6502 15.5873 44.3569 15.8593C45.4102 16.262 45.5836 16.3153 45.7116 16.2673C45.7969 16.2326 45.8396 15.9846 45.8822 15.254" fill="#F50DB4"/>
<path d="M23.6184 11.4952C22.9917 11.3965 22.9651 11.3885 23.2611 11.3405C23.8237 11.2552 25.1544 11.3725 26.0717 11.5885C28.2131 12.0952 30.1624 13.3938 32.2424 15.6952L32.7944 16.3085L33.5864 16.1805C36.9171 15.6472 40.3037 16.0738 43.1384 17.3752C43.9171 17.7325 45.1464 18.4445 45.2984 18.6285C45.3491 18.6872 45.4397 19.0632 45.4984 19.4632C45.7117 20.8498 45.6051 21.9165 45.1784 22.7085C44.9464 23.1432 44.9331 23.2792 45.0877 23.6498C45.2131 23.9432 45.5597 24.1618 45.9037 24.1618C46.6077 24.1618 47.3677 23.0285 47.7171 21.4552L47.8584 20.8285L48.1331 21.1405C49.6504 22.8472 50.8397 25.1778 51.0451 26.8365L51.0984 27.2685L50.8424 26.8738C50.4785 26.2722 49.9869 25.7579 49.4024 25.3672C48.3837 24.6978 47.3064 24.4685 44.4584 24.3192C41.8877 24.1858 40.4317 23.9672 38.9891 23.4978C36.5331 22.7032 35.2931 21.6418 32.3757 17.8338C31.0797 16.1432 30.2797 15.2072 29.4824 14.4552C27.6744 12.7432 25.8931 11.8445 23.6157 11.4952M24.8317 19.6818C23.5624 17.9458 22.7784 15.2818 22.9464 13.2898L22.9997 12.6712L23.2877 12.7245C23.8317 12.8232 24.7677 13.1698 25.2051 13.4338C26.4051 14.1592 26.9277 15.1138 27.4557 17.5698C27.6104 18.2898 27.8157 19.1032 27.9091 19.3778C28.0584 19.8205 28.6291 20.8578 29.0904 21.5298C29.4237 22.0125 29.2024 22.2445 28.4664 22.1778C27.3411 22.0765 25.8157 21.0312 24.8317 19.6818ZM44.3411 32.6152C38.4104 30.2418 36.3197 28.1778 36.3197 24.7005C36.3197 24.1885 36.3384 23.7672 36.3597 23.7672C36.3811 23.7672 36.6104 23.9378 36.8691 24.1458C38.0717 25.1058 39.4184 25.5138 43.1464 26.0552C45.3411 26.3752 46.5757 26.6312 47.7144 27.0072C51.3357 28.1992 53.5731 30.6232 54.1091 33.9245C54.2637 34.8845 54.1731 36.6818 53.9224 37.6285C53.7224 38.3752 53.1171 39.7272 52.9544 39.7778C52.9117 39.7938 52.8664 39.6232 52.8557 39.3912C52.7944 38.1512 52.1651 36.9458 51.1091 36.0418C49.9064 35.0152 48.2904 34.1965 44.3411 32.6152ZM40.1784 33.6018C40.1075 33.1804 40.0113 32.7637 39.8904 32.3538L39.7384 31.9058L40.0211 32.2178C40.4104 32.6525 40.7144 33.2072 40.9784 33.9485C41.1757 34.5138 41.1971 34.6818 41.1971 35.5992C41.1971 36.5005 41.1704 36.6898 40.9864 37.1992C40.6984 37.9992 40.3384 38.5672 39.7331 39.1778C38.6531 40.2738 37.2584 40.8818 35.2504 41.1325C34.9011 41.1778 33.8824 41.2498 32.9864 41.2978C30.7304 41.4125 29.2451 41.6552 27.9117 42.1218C27.7913 42.1754 27.662 42.2061 27.5304 42.2125C27.4771 42.1592 28.3837 41.6205 29.1357 41.2605C30.1944 40.7538 31.2477 40.4765 33.6051 40.0872C34.7731 39.8925 35.9757 39.6605 36.2824 39.5645C39.1677 38.6845 40.6531 36.4125 40.1757 33.6018" fill="#F50DB4"/>
<path d="M42.8965 38.4117C42.1098 36.7264 41.9285 35.0997 42.3605 33.5824C42.4058 33.4224 42.4805 33.2891 42.5232 33.2891C42.6711 33.3421 42.8103 33.4167 42.9365 33.5104C43.3018 33.7531 44.0298 34.1637 45.9685 35.2144C48.3898 36.5264 49.7712 37.5451 50.7098 38.7077C51.5312 39.7211 52.0405 40.8811 52.2832 42.2944C52.4245 43.0944 52.3418 45.0197 52.1365 45.8251C51.4858 48.3664 49.9712 50.3611 47.8165 51.5264C47.6129 51.6433 47.4017 51.7466 47.1845 51.8357C47.1525 51.8357 47.2672 51.5451 47.4405 51.1904C48.1658 49.6811 48.2485 48.2117 47.6992 46.5771C47.3632 45.5771 46.6778 44.3584 45.2938 42.2944C43.6858 39.8944 43.2938 39.2544 42.8965 38.4117ZM20.6218 47.4997C22.8218 45.6517 25.5605 44.3397 28.0538 43.9371C29.1285 43.7637 30.9205 43.8304 31.9152 44.0837C33.5098 44.4917 34.9392 45.4011 35.6805 46.4837C36.4058 47.5451 36.7178 48.4677 37.0405 50.5211C37.1685 51.3317 37.3072 52.1451 37.3498 52.3291C37.5925 53.3931 38.0672 54.2437 38.6565 54.6704C39.5872 55.3504 41.1898 55.3904 42.7685 54.7771C42.9334 54.702 43.1073 54.6482 43.2858 54.6171C43.3445 54.6757 42.5498 55.2037 41.9872 55.4837C41.2325 55.8571 40.6325 56.0037 39.8352 56.0037C38.3898 56.0037 37.1898 55.2731 36.1872 53.7797C35.9898 53.4864 35.5472 52.6064 35.2005 51.8251C34.1445 49.4251 33.6245 48.6971 32.3952 47.8971C31.3285 47.2011 29.9472 47.0757 28.9125 47.5797C27.5498 48.2464 27.1685 49.9771 28.1445 51.0731C28.5312 51.5104 29.2538 51.8864 29.8458 51.9584C30.1033 51.9932 30.3652 51.9722 30.6138 51.897C30.8625 51.8217 31.092 51.6939 31.287 51.5222C31.4819 51.3505 31.6377 51.1389 31.7438 50.9018C31.8499 50.6647 31.9038 50.4075 31.9018 50.1477C31.9018 49.4277 31.6245 49.0144 30.9232 48.6997C29.9632 48.2704 28.9338 48.7717 28.9392 49.6677C28.9392 50.0491 29.1098 50.2891 29.4938 50.4624C29.7392 50.5744 29.7472 50.5824 29.5472 50.5424C28.6672 50.3611 28.4592 49.3051 29.1658 48.6064C30.0165 47.7664 31.7712 48.1371 32.3738 49.2837C32.6272 49.7637 32.6565 50.7237 32.4352 51.3024C31.9418 52.6011 30.4992 53.2811 29.0378 52.9104C28.0432 52.6571 27.6405 52.3851 26.4405 51.1557C24.3552 49.0224 23.5472 48.6064 20.5418 48.1424L19.9658 48.0517L20.6218 47.4997Z" fill="#F50DB4"/>
<path fill-rule="evenodd" clip-rule="evenodd" d="M10.84 9.27733C17.8 17.6773 22.5946 21.144 23.128 21.88C23.568 22.4827 23.4026 23.0267 22.648 23.4533C22.2293 23.6907 21.368 23.9307 20.936 23.9307C20.448 23.9307 20.28 23.744 20.28 23.744C19.9973 23.4773 19.84 23.5227 18.3866 20.9573C17.1508 19.0357 15.9001 17.1236 14.6346 15.2213C14.528 15.12 14.5306 15.1227 18.1813 21.6187C18.768 22.9733 18.2986 23.4693 18.2986 23.6613C18.2986 24.0533 18.192 24.2613 17.704 24.8C16.8933 25.7013 16.5306 26.712 16.2693 28.8027C15.976 31.1493 15.1493 32.8053 12.864 35.6427C11.5253 37.3013 11.3066 37.6053 10.9706 38.2747C10.544 39.1173 10.4266 39.5893 10.3786 40.6533C10.328 41.7787 10.4266 42.5067 10.7733 43.5813C11.0746 44.5227 11.3893 45.144 12.1973 46.3867C12.8933 47.4613 13.296 48.2587 13.296 48.5707C13.296 48.8187 13.344 48.8187 14.424 48.576C17.0053 47.9973 19.104 46.976 20.2826 45.7253C21.0133 44.952 21.184 44.5253 21.1893 43.464C21.1946 42.7707 21.1706 42.624 20.9813 42.224C20.6746 41.576 20.1146 41.0347 18.8826 40.1973C17.2693 39.1013 16.5813 38.216 16.3893 37.0027C16.2346 36.0053 16.416 35.3013 17.3093 33.44C18.232 31.5147 18.4613 30.6933 18.616 28.752C18.7173 27.4987 18.856 27.0027 19.216 26.6053C19.5946 26.192 19.936 26.0507 20.8693 25.9253C22.3946 25.7173 23.3653 25.3253 24.1653 24.592C24.8586 23.96 25.1466 23.3467 25.192 22.4267L25.224 21.7307L24.8373 21.28C23.44 19.656 9.90398 8 9.81598 8C9.79731 8 10.2586 8.576 10.84 9.27733ZM14.0826 41.928C14.2364 41.6588 14.2825 41.3415 14.2117 41.0397C14.141 40.7379 13.9586 40.4741 13.7013 40.3013C13.2 39.9707 12.4213 40.1253 12.4213 40.5573C12.4213 40.6907 12.496 40.784 12.6613 40.8693C12.9386 41.0107 12.9573 41.1707 12.7413 41.4987C12.5173 41.8293 12.536 42.12 12.7893 42.3173C13.2 42.6373 13.7786 42.4613 14.0826 41.928ZM26.1866 26.2907C25.472 26.5093 24.7733 27.264 24.56 28.056C24.4266 28.536 24.504 29.384 24.7013 29.6453C25.0186 30.0693 25.3253 30.1787 26.1573 30.1733C27.7893 30.1627 29.2053 29.4667 29.3706 28.6C29.504 27.8853 28.8826 26.8987 28.0266 26.464C27.584 26.24 26.64 26.152 26.1866 26.2907ZM28.0933 27.7733C28.344 27.4187 28.2346 27.0347 27.808 26.7733C26.992 26.28 25.76 26.688 25.76 27.4533C25.76 27.8347 26.4026 28.2507 26.992 28.2507C27.384 28.2507 27.92 28.0187 28.0933 27.7707" fill="#F50DB4"/>
</svg>
