<svg width="21" height="17" viewBox="0 0 21 17" fill="none" xmlns="http://www.w3.org/2000/svg">
<path fill-rule="evenodd" clip-rule="evenodd" d="M13.0997 0C13.8437 0 14.6297 0.26 15.3497 0.547L15.8767 0.763C17.1367 1.291 17.8447 2.399 18.3937 3.616C19.2847 5.591 19.9037 8.224 20.1177 10.226C20.2197 11.176 20.2447 12.132 20.0617 12.775C19.8647 13.462 19.1947 13.948 18.5437 14.33L18.2217 14.513L17.8877 14.699C17.7157 14.795 17.5387 14.89 17.3627 14.983L16.8407 15.253L16.1237 15.61L15.5467 15.894C15.4288 15.9576 15.2994 15.9968 15.166 16.0094C15.0327 16.022 14.8982 16.0077 14.7705 15.9673C14.6428 15.9269 14.5246 15.8613 14.4227 15.7743C14.3209 15.6874 14.2375 15.5808 14.1776 15.461C14.1177 15.3413 14.0825 15.2107 14.0741 15.077C14.0656 14.9433 14.0841 14.8094 14.1284 14.683C14.1727 14.5566 14.2419 14.4404 14.332 14.3413C14.4221 14.2422 14.5311 14.1622 14.6527 14.106L15.4427 13.716L14.8627 13.107C13.4727 13.677 11.8357 14 10.0967 14C8.35769 14 6.72069 13.678 5.33069 13.107L4.75069 13.715L5.54369 14.105C5.66123 14.1637 5.76605 14.245 5.85217 14.3442C5.93829 14.4434 6.00403 14.5586 6.04563 14.6832C6.08723 14.8078 6.10388 14.9394 6.09463 15.0705C6.08537 15.2015 6.0504 15.3295 5.99169 15.447C5.93299 15.5645 5.85172 15.6694 5.75251 15.7555C5.6533 15.8416 5.53809 15.9073 5.41348 15.9489C5.1618 16.033 4.88706 16.0136 4.64969 15.895L4.10569 15.625C3.70369 15.425 3.30069 15.227 2.90269 15.018L1.97469 14.513L1.65369 14.33C1.00269 13.948 0.331694 13.462 0.135694 12.775C-0.0483061 12.132 -0.0223061 11.177 0.0786939 10.225C0.292694 8.224 0.911694 5.591 1.80269 3.616C2.35169 2.399 3.05969 1.291 4.31969 0.763C5.15569 0.413 6.16869 0 7.09669 0C7.69969 0 8.17369 0.555 8.08669 1.147C8.75216 1.04854 9.42399 0.999404 10.0967 1C10.7877 1 11.4627 1.05 12.1107 1.148C12.0914 1.00599 12.1025 0.861504 12.1433 0.724109C12.1841 0.586714 12.2535 0.459542 12.3471 0.351012C12.4407 0.242481 12.5563 0.155067 12.6862 0.0945554C12.8161 0.0340434 12.9564 0.00181393 13.0997 0ZM6.84669 6.5C6.38257 6.5 5.93745 6.68437 5.60926 7.01256C5.28107 7.34075 5.09669 7.78587 5.09669 8.25C5.09669 8.71413 5.28107 9.15925 5.60926 9.48744C5.93745 9.81563 6.38257 10 6.84669 10C7.31082 10 7.75594 9.81563 8.08413 9.48744C8.41232 9.15925 8.59669 8.71413 8.59669 8.25C8.59669 7.78587 8.41232 7.34075 8.08413 7.01256C7.75594 6.68437 7.31082 6.5 6.84669 6.5ZM13.3467 6.5C12.8826 6.5 12.4374 6.68437 12.1093 7.01256C11.7811 7.34075 11.5967 7.78587 11.5967 8.25C11.5967 8.71413 11.7811 9.15925 12.1093 9.48744C12.4374 9.81563 12.8826 10 13.3467 10C13.8108 10 14.2559 9.81563 14.5841 9.48744C14.9123 9.15925 15.0967 8.71413 15.0967 8.25C15.0967 7.78587 14.9123 7.34075 14.5841 7.01256C14.2559 6.68437 13.8108 6.5 13.3467 6.5Z" fill="black"/>
</svg>
